<?xml version="1.0" encoding="UTF-8" standalone="no"?>
<!DOCTYPE svg PUBLIC "-//W3C//DTD SVG 1.1//EN" "http://www.w3.org/Graphics/SVG/1.1/DTD/svg11.dtd">
<svg width="100%" height="100%" viewBox="0 0 20 20" version="1.1" xmlns="http://www.w3.org/2000/svg" xmlns:xlink="http://www.w3.org/1999/xlink" xml:space="preserve" xmlns:serif="http://www.serif.com/" style="fill-rule:evenodd;clip-rule:evenodd;stroke-linejoin:round;stroke-miterlimit:2;">
    <g transform="matrix(0.967536,0,0,0.967536,1.21461,1.24949)">
        <g transform="matrix(1.03355,0,0,0.816863,-0.988599,-0.391274)">
            <path d="M17.804,2.557C17.804,2.328 17.657,2.143 17.476,2.143L1.931,2.143C1.75,2.143 1.604,2.328 1.604,2.557L1.604,5.871C1.604,6.1 1.75,6.286 1.931,6.286L17.476,6.286C17.657,6.286 17.804,6.1 17.804,5.871L17.804,2.557Z" style="fill:rgb(186,186,186);"/>
        </g>
        <g transform="matrix(1.03355,0,0,0.816863,-0.988599,11.5945)">
            <path d="M17.804,2.557C17.804,2.328 17.657,2.143 17.476,2.143L1.931,2.143C1.75,2.143 1.604,2.328 1.604,2.557L1.604,5.871C1.604,6.1 1.75,6.286 1.931,6.286L17.476,6.286C17.657,6.286 17.804,6.1 17.804,5.871L17.804,2.557Z" style="fill:rgb(186,186,186);"/>
        </g>
        <g transform="matrix(1.03355,0,0,0.816863,-0.948989,5.60753)">
            <path d="M17.804,2.557C17.804,2.328 17.657,2.143 17.476,2.143L1.931,2.143C1.75,2.143 1.604,2.328 1.604,2.557L1.604,5.871C1.604,6.1 1.75,6.286 1.931,6.286L17.476,6.286C17.657,6.286 17.804,6.1 17.804,5.871L17.804,2.557Z" style="fill:rgb(186,186,186);"/>
        </g>
    </g>
</svg>
