<?xml version="1.0" encoding="UTF-8" standalone="no"?>
<!DOCTYPE svg PUBLIC "-//W3C//DTD SVG 1.1//EN" "http://www.w3.org/Graphics/SVG/1.1/DTD/svg11.dtd">
<svg width="100%" height="100%" viewBox="0 0 20 20" version="1.1" xmlns="http://www.w3.org/2000/svg" xmlns:xlink="http://www.w3.org/1999/xlink" xml:space="preserve" xmlns:serif="http://www.serif.com/" style="fill-rule:evenodd;clip-rule:evenodd;stroke-linejoin:round;stroke-miterlimit:2;">
    <g transform="matrix(0.967536,0,0,0.967536,1.21461,1.24949)">
        <path d="M12.269,0.905L5.445,0.905C2.481,0.905 0.714,2.672 0.714,5.636L0.714,12.451C0.714,15.424 2.481,17.191 5.445,17.191L12.261,17.191C15.225,17.191 16.992,15.424 16.992,12.46L16.992,5.636C17,2.672 15.233,0.905 12.269,0.905ZM8.857,12.207C7.115,12.207 5.698,10.79 5.698,9.048C5.698,7.305 7.115,5.888 8.857,5.888C10.6,5.888 12.017,7.305 12.017,9.048C12.017,10.79 10.6,12.207 8.857,12.207ZM13.678,4.879C13.637,4.976 13.58,5.066 13.507,5.147C13.425,5.221 13.336,5.278 13.238,5.318C13.14,5.359 13.034,5.383 12.929,5.383C12.709,5.383 12.505,5.302 12.35,5.147C12.277,5.066 12.22,4.976 12.179,4.879C12.139,4.781 12.114,4.675 12.114,4.569C12.114,4.463 12.139,4.357 12.179,4.26C12.22,4.154 12.277,4.072 12.35,3.991C12.538,3.804 12.823,3.714 13.083,3.771C13.14,3.779 13.189,3.796 13.238,3.82C13.287,3.836 13.336,3.861 13.384,3.893C13.425,3.918 13.466,3.958 13.507,3.991C13.58,4.072 13.637,4.154 13.678,4.26C13.718,4.357 13.743,4.463 13.743,4.569C13.743,4.675 13.718,4.781 13.678,4.879Z" style="fill:rgb(186,186,186);fill-rule:nonzero;"/>
    </g>
</svg>
