<?xml version="1.0" encoding="UTF-8" standalone="no"?>
<!DOCTYPE svg PUBLIC "-//W3C//DTD SVG 1.1//EN" "http://www.w3.org/Graphics/SVG/1.1/DTD/svg11.dtd">
<svg width="100%" height="100%" viewBox="0 0 20 20" version="1.1" xmlns="http://www.w3.org/2000/svg" xmlns:xlink="http://www.w3.org/1999/xlink" xml:space="preserve" xmlns:serif="http://www.serif.com/" style="fill-rule:evenodd;clip-rule:evenodd;stroke-linejoin:round;stroke-miterlimit:2;">
    <g transform="matrix(0.817915,0,0,0.817915,0.185023,0.185023)">
        <path d="M12,17C10.617,17 9.438,16.513 8.463,15.538C7.488,14.563 7,13.383 7,12C7,10.617 7.488,9.438 8.463,8.462C9.438,7.488 10.617,7 12,7C13.383,7 14.563,7.488 15.538,8.462C16.513,9.438 17,10.617 17,12C17,13.383 16.513,14.563 15.538,15.538C14.563,16.513 13.383,17 12,17ZM2,13.137C1.681,13.137 1.411,13.028 1.192,12.808C0.972,12.589 0.863,12.319 0.863,12C0.863,11.681 0.972,11.411 1.192,11.192C1.411,10.972 1.681,10.862 2,10.862L4,10.862C4.319,10.862 4.589,10.972 4.808,11.192C5.028,11.411 5.138,11.681 5.138,12C5.138,12.319 5.028,12.589 4.808,12.808C4.589,13.028 4.319,13.138 4,13.137L2,13.137ZM20,13.137C19.681,13.137 19.411,13.028 19.192,12.808C18.972,12.589 18.863,12.319 18.863,12C18.863,11.681 18.972,11.411 19.192,11.192C19.411,10.972 19.681,10.862 20,10.862L22,10.862C22.319,10.862 22.589,10.972 22.808,11.192C23.028,11.411 23.138,11.681 23.138,12C23.138,12.319 23.028,12.589 22.808,12.808C22.589,13.028 22.319,13.138 22,13.137L20,13.137ZM12,5.137C11.681,5.137 11.411,5.028 11.192,4.808C10.972,4.589 10.862,4.319 10.863,4L10.863,2C10.863,1.681 10.972,1.411 11.192,1.192C11.411,0.972 11.681,0.862 12,0.862C12.319,0.862 12.589,0.972 12.808,1.192C13.028,1.411 13.138,1.681 13.138,2L13.138,4C13.138,4.319 13.028,4.589 12.808,4.808C12.589,5.028 12.319,5.137 12,5.137ZM12,23.138C11.681,23.138 11.411,23.028 11.192,22.808C10.972,22.589 10.862,22.319 10.863,22L10.863,20C10.863,19.681 10.972,19.411 11.192,19.192C11.411,18.972 11.681,18.863 12,18.863C12.319,18.863 12.589,18.972 12.808,19.192C13.028,19.411 13.138,19.681 13.138,20L13.138,22C13.138,22.319 13.028,22.589 12.808,22.808C12.589,23.028 12.319,23.138 12,23.138ZM5.554,7.152L4.479,6.102C4.251,5.89 4.142,5.625 4.15,5.306C4.158,4.987 4.268,4.711 4.479,4.479C4.703,4.251 4.975,4.137 5.294,4.137C5.613,4.137 5.88,4.251 6.096,4.479L7.152,5.554C7.363,5.778 7.467,6.042 7.466,6.347C7.464,6.652 7.359,6.918 7.152,7.146C6.94,7.374 6.678,7.485 6.366,7.481C6.053,7.477 5.782,7.367 5.554,7.152ZM17.904,19.521L16.848,18.446C16.637,18.222 16.532,17.954 16.532,17.643C16.532,17.333 16.637,17.07 16.848,16.854C17.06,16.626 17.322,16.517 17.635,16.525C17.947,16.533 18.218,16.643 18.446,16.854L19.521,17.898C19.749,18.11 19.858,18.375 19.85,18.694C19.842,19.013 19.732,19.289 19.521,19.521C19.297,19.749 19.025,19.863 18.706,19.863C18.387,19.863 18.12,19.749 17.904,19.521ZM16.854,7.152C16.626,6.94 16.517,6.678 16.525,6.366C16.533,6.053 16.643,5.782 16.854,5.554L17.898,4.479C18.11,4.251 18.375,4.142 18.694,4.15C19.013,4.158 19.289,4.268 19.521,4.479C19.749,4.703 19.863,4.975 19.863,5.294C19.863,5.613 19.749,5.88 19.521,6.096L18.446,7.152C18.222,7.363 17.958,7.467 17.653,7.465C17.348,7.464 17.082,7.359 16.854,7.152ZM4.479,19.521C4.251,19.297 4.138,19.025 4.138,18.706C4.138,18.387 4.251,18.12 4.479,17.904L5.554,16.848C5.778,16.637 6.046,16.532 6.357,16.532C6.667,16.532 6.93,16.637 7.146,16.848C7.374,17.06 7.483,17.322 7.475,17.635C7.467,17.947 7.357,18.218 7.146,18.446L6.102,19.521C5.89,19.749 5.625,19.858 5.306,19.85C4.987,19.842 4.711,19.732 4.479,19.521Z" style="fill:rgb(186,186,186);fill-rule:nonzero;"/>
    </g>
</svg>
