<?xml version="1.0" encoding="UTF-8" standalone="no"?>
<!DOCTYPE svg PUBLIC "-//W3C//DTD SVG 1.1//EN" "http://www.w3.org/Graphics/SVG/1.1/DTD/svg11.dtd">
<svg viewBox="0 0 24 24" version="1.1" xmlns="http://www.w3.org/2000/svg" xmlns:xlink="http://www.w3.org/1999/xlink" xml:space="preserve" xmlns:serif="http://www.serif.com/" style="fill-rule:evenodd;clip-rule:evenodd;stroke-linejoin:round;stroke-miterlimit:2;">
    <g transform="matrix(1.14135,0,0,1.11511,-1.1745,1.37089)">
        <path d="M4.917,17.979C4.472,17.979 4.083,17.813 3.75,17.479C3.417,17.146 3.25,16.757 3.25,16.313C3.25,15.868 3.417,15.479 3.75,15.146C4.083,14.813 4.472,14.646 4.917,14.646C5.361,14.646 5.75,14.813 6.083,15.146C6.417,15.479 6.583,15.868 6.583,16.313C6.583,16.757 6.417,17.146 6.083,17.479C5.75,17.813 5.361,17.979 4.917,17.979ZM16.583,17.979C16.583,16.063 16.25,14.288 15.583,12.656C14.917,11.024 13.99,9.615 12.802,8.427C11.615,7.24 10.205,6.309 8.573,5.635C6.941,4.962 5.167,4.625 3.25,4.625L3.25,1.292C5.625,1.292 7.83,1.715 9.865,2.563C11.899,3.41 13.66,4.58 15.146,6.073C16.632,7.566 17.799,9.33 18.646,11.365C19.493,13.399 19.917,15.604 19.917,17.979L16.583,17.979ZM9.917,17.979C9.917,15.965 9.309,14.347 8.094,13.125C6.878,11.903 5.264,11.292 3.25,11.292L3.25,7.958C4.708,7.958 6.049,8.208 7.271,8.708C8.493,9.208 9.549,9.899 10.438,10.781C11.326,11.663 12.017,12.719 12.51,13.948C13.003,15.177 13.25,16.521 13.25,17.979L9.917,17.979Z" style="fill:rgb(186,186,186);fill-rule:nonzero;"/>
    </g>
</svg>
